<svg xmlns:xlink="http://www.w3.org/1999/xlink">
    <symbol viewBox="0 0 57 40" id="add-cart-icon" xmlns="http://www.w3.org/2000/svg">
        <defs>
            <g id="add_cart_icon">
                <rect x="0.5" y="0.5" width="56" height="39" stroke="#E31B25"/>
                <path d="M6.55995 7.10915H11.7675L15.1328 23.763C15.1832 24.0237 15.4127 24.2067 15.6815 24.2067H31.5281C32.2728 24.2067 32.8775 24.8112 32.8775 25.5488C32.8775 26.2864 32.2728 26.8909 31.5281 26.8909H15.6815C15.3735 26.8909 15.1216 27.1349 15.1216 27.4454C15.1216 27.7504 15.3735 28 15.6815 28H31.5281C32.8887 28 33.9974 26.9019 33.9974 25.5488C33.9974 24.3121 33.0679 23.2972 31.8696 23.1308L33.9918 10.3534C34.0198 10.1926 33.975 10.0262 33.8687 9.89866C33.7623 9.77111 33.6055 9.69902 33.4375 9.69902H13.4305L12.7754 6.44366C12.725 6.18856 12.4954 6 12.2266 6H6.55995C6.25198 6 6 6.24956 6 6.55458C6 6.85959 6.25198 7.10915 6.55995 7.10915Z"
                      fill="#E31B25"/>
                <path d="M26 31.497C26 32.8809 27.1238 34 28.5 34C29.8762 34 31 32.8809 31 31.497C31 30.1191 29.8762 29 28.5 29C27.1238 29 26 30.1191 26 31.497Z"
                      fill="#E31B25"/>
                <path d="M16 31.497C16 32.8809 17.1252 34 18.503 34C19.8809 34 21 32.8809 21 31.497C21 30.1191 19.8809 29 18.503 29C17.1252 29 16 30.1191 16 31.497Z"
                      fill="#E31B25"/>
                <path d="M49 21H45V25H43V21H39V19H43V15H45V19H49V21Z" fill="#E31B25"/>
            </g>
        </defs>
        <use xlink:href="#add_cart_icon" transform="translate(0 0 57 40)"/>
    </symbol>

</svg>


