<svg width="20" height="21" viewBox="0 0 20 21" fill="none" xmlns="http://www.w3.org/2000/svg">
<path d="M15.0929 0H3.90717C1.75275 0 0 2.01869 0 4.5C0 6.99332 1.77097 9 3.88387 9H5.63877V5.47421C5.63877 3.89523 6.75409 2.61064 8.12502 2.61064H8.13044C9.49848 2.61402 10.45 3.89861 10.45 5.47421V9H15.0929C17.2473 9 19 6.98131 19 4.5C19 2.01869 17.2473 0 15.0929 0ZM16.1985 3.87249L13.9719 6.43689C13.7546 6.68726 13.4021 6.6873 13.1847 6.43689L12.0715 5.15469C11.8541 4.90432 11.8541 4.49842 12.0715 4.24805C12.2888 3.99768 12.6413 3.99768 12.8587 4.24805L13.5784 5.0769L15.4113 2.96585C15.6287 2.71548 15.9812 2.71548 16.1985 2.96585C16.4159 3.21622 16.4159 3.62217 16.1985 3.87249Z" fill="#C1C1C1"/>
<path d="M14.8153 21C15.0933 20.1288 16 17.0937 16 15.9754V12.0916C16 11.5682 15.567 11.1424 15.0348 11.1424C14.5028 11.1424 14.0698 11.5682 14.0698 12.0916V13.7476C14.0698 13.8449 13.9884 13.924 13.8882 13.924C13.788 13.924 13.7066 13.8449 13.7066 13.7476V11.1596C13.7066 10.6364 13.2735 10.2107 12.7412 10.2107C12.2091 10.2107 11.7762 10.6364 11.7762 11.1596V13.0047C11.7762 13.102 11.6947 13.1811 11.5945 13.1811C11.4944 13.1811 11.4129 13.102 11.4129 13.0047V10.4169C11.4129 9.89379 10.98 9.46823 10.4478 9.46823C9.91571 9.46823 9.48278 9.89379 9.48278 10.4169V12.2625C9.48278 12.3596 9.40122 12.4388 9.30109 12.4388C9.20085 12.4388 9.11945 12.3596 9.11945 12.2625V6.94889C9.1195 6.42561 8.68641 6 8.15418 6C7.622 6 7.18897 6.42561 7.18897 6.94889V15.1768C7.18897 15.2499 7.14169 15.3163 7.0711 15.342C7.00114 15.3674 6.91932 15.3472 6.87058 15.2928L4.6099 12.7819L4.58337 12.7552C4.4022 12.5887 4.16449 12.4964 3.91429 12.4951H3.90784C3.6476 12.498 3.40697 12.5941 3.23033 12.7661C3.0077 12.9824 2.83323 13.3958 3.26773 14.1376C3.9275 15.2627 4.6486 16.3298 5.28746 17.2751C5.76242 17.9781 6.21112 18.642 6.54563 19.202C6.75947 19.5604 7.20556 20.5014 7.45222 20.9999H14.8153V21Z" fill="#C1C1C1"/>
</svg>
