<svg width="21" height="21" viewBox="0 0 21 21" fill="none" xmlns="http://www.w3.org/2000/svg">
<path d="M17.5764 15.9781C17.9545 15.9781 18.2611 15.6715 18.2611 15.2934C18.2611 14.9152 17.9545 14.6086 17.5764 14.6086C17.1982 14.6086 16.8916 14.9152 16.8916 15.2934C16.8916 15.6715 17.1982 15.9781 17.5764 15.9781Z" fill="#C1C1C1"/>
<path d="M8.90277 15.9781C9.28095 15.9781 9.58753 15.6715 9.58753 15.2934C9.58753 14.9152 9.28095 14.6086 8.90277 14.6086C8.52459 14.6086 8.21802 14.9152 8.21802 15.2934C8.21802 15.6715 8.52459 15.9781 8.90277 15.9781Z" fill="#C1C1C1"/>
<path d="M17.5762 11.8695H8.90259C8.13137 11.8695 7.42131 12.1289 6.84832 12.5607V8.44572C6.84832 8.13519 6.63922 7.8635 6.33923 7.78393C6.04006 7.70461 5.72359 7.83651 5.56888 8.10603L0.0908306 17.6926C-0.169249 18.149 0.160188 18.7171 0.685516 18.7171H3.42454C4.54517 18.7171 5.53861 18.1736 6.16356 17.3389C6.78852 18.1736 7.78196 18.7171 8.90259 18.7171H17.5762C19.4641 18.7171 20.9999 17.1812 20.9999 15.2933C21 13.4053 19.4641 11.8695 17.5762 11.8695ZM8.90259 17.3475C7.76982 17.3475 6.84832 16.426 6.84832 15.2933C6.84832 14.1605 7.76982 13.239 8.90259 13.239C10.0354 13.239 10.9569 14.1605 10.9569 15.2933C10.9569 16.426 10.0354 17.3475 8.90259 17.3475ZM17.5762 17.3475C16.4434 17.3475 15.5219 16.426 15.5219 15.2933C15.5219 14.1605 16.4434 13.239 17.5762 13.239C18.7089 13.239 19.6304 14.1605 19.6304 15.2933C19.6304 16.426 18.7089 17.3475 17.5762 17.3475Z" fill="#C1C1C1"/>
<path d="M17.5761 2.2829H13.4676C13.1533 2.2829 12.8795 2.49667 12.8033 2.80158L11.5635 7.76099H10.9568V7.07623C10.9568 6.69798 10.6501 6.39147 10.272 6.39147C9.894 6.39147 9.58729 6.69798 9.58729 7.07623V8.13156C8.76997 8.60607 8.21777 9.48881 8.21777 10.5V10.5547C8.44205 10.5224 8.66944 10.5 8.90253 10.5H17.5761C18.3119 10.5 19.0067 10.6715 19.6304 10.9691V4.33717C19.6304 3.2044 18.7089 2.2829 17.5761 2.2829ZM16.8913 7.07623C16.8913 7.45439 16.5848 7.76099 16.2066 7.76099H12.975L14.0021 3.65245H16.2066C16.5848 3.65245 16.8913 3.95904 16.8913 4.33721V7.07623Z" fill="#C1C1C1"/>
</svg>
