<svg width="17" height="18" viewBox="0 0 17 18" fill="none" xmlns="http://www.w3.org/2000/svg">
<path d="M6.41667 0H0.583333C0.261157 0 0 0.447698 0 1V11C0 11.5523 0.261157 12 0.583333 12H6.41667C6.73884 12 7 11.5523 7 11V1C7 0.447698 6.73884 0 6.41667 0Z" fill="white"/>
<path d="M16.3333 0H9.66667C9.29846 0 9 0.298466 9 0.666667V7.33333C9 7.70153 9.29846 8 9.66667 8H16.3333C16.7015 8 17 7.70153 17 7.33333V0.666667C17 0.298466 16.7015 0 16.3333 0Z" fill="white"/>
<path d="M6.41667 10H0.583333C0.261157 10 0 10.2985 0 10.6667V17.3333C0 17.7015 0.261157 18 0.583333 18H6.41667C6.73884 18 7 17.7015 7 17.3333V10.6667C7 10.2985 6.73884 10 6.41667 10Z" fill="white"/>
<path d="M16.3333 10H9.66667C9.29846 10 9 10.2985 9 10.6667V17.3333C9 17.7015 9.29846 18 9.66667 18H16.3333C16.7015 18 17 17.7015 17 17.3333V10.6667C17 10.2985 16.7015 10 16.3333 10Z" fill="white"/>
</svg>
