<svg width="19" height="19" viewBox="0 0 19 19" fill="none" xmlns="http://www.w3.org/2000/svg">
<path d="M7.63378 8.9424C7.67226 8.81388 7.72334 8.6908 7.78616 8.57489L5.57388 6.36261C4.99426 7.08647 4.61036 7.9733 4.50293 8.94243H7.63378V8.9424Z" fill="#E31B25"/>
<path d="M11.366 10.0576C11.3275 10.1861 11.2764 10.3092 11.2136 10.4251L13.4259 12.6374C14.0056 11.9135 14.3895 11.0267 14.4969 10.0576H11.366V10.0576Z" fill="#E31B25"/>
<path d="M17.8014 10.0576V8.94239H19C18.9528 8.1202 18.8017 7.31772 18.5525 6.55026L17.4322 6.9894L17.0252 5.95108L18.1455 5.51191C17.7566 4.66998 17.2422 3.88389 16.6118 3.17677L15.7642 4.02434L14.9757 3.23576L15.8232 2.38819C15.2085 1.8402 14.5342 1.37965 13.8153 1.01315L13.3337 2.11577L12.3117 1.66939L12.7933 0.566685C11.923 0.246391 11.0034 0.0542745 10.0576 0V1.19861H8.94239V0C8.1202 0.0472113 7.31772 0.198325 6.55022 0.447541L6.98936 1.56775L5.95105 1.97477L5.51187 0.854488C4.66998 1.24341 3.88386 1.75782 3.17673 2.38819L4.0243 3.23576L3.23572 4.02434L2.38819 3.17677C1.8402 3.79152 1.37965 4.46582 1.01315 5.18473L2.11577 5.66633L1.66939 6.68832L0.566685 6.20673C0.246391 7.07702 0.0542745 7.99663 0 8.94239H1.19861V10.0576H0C0.0472113 10.8798 0.198325 11.6823 0.447541 12.4497L1.56775 12.0106L1.97477 13.0489L0.854488 13.4881C1.24341 14.3299 1.75782 15.1161 2.38819 15.8232L3.23572 14.9757L4.0243 15.7642L3.17673 16.6118C3.79148 17.1598 4.46578 17.6203 5.1847 17.9869L5.66629 16.8842L6.68829 17.3306L6.20666 18.4333C7.07698 18.7536 7.9966 18.9457 8.94235 19V17.8014H10.0576V19C10.8798 18.9528 11.6822 18.8017 12.4497 18.5525L12.0106 17.4323L13.0489 17.0253L13.488 18.1455C14.3299 17.7566 15.116 17.2422 15.8232 16.6119L14.9756 15.7643L15.7642 14.9757L16.6117 15.8233C17.1597 15.2085 17.6203 14.5342 17.9868 13.8153L16.8842 13.3337L17.3305 12.3117L18.4332 12.7933C18.7535 11.923 18.9457 11.0034 18.9999 10.0577H17.8014V10.0576ZM9.5 15.6432C6.1126 15.6432 3.35676 12.8874 3.35676 9.5C3.35676 6.1126 6.1126 3.35676 9.5 3.35676C12.8874 3.35676 15.6433 6.1126 15.6433 9.5C15.6433 12.8874 12.8874 15.6432 9.5 15.6432Z" fill="#E31B25"/>
<path d="M11.2136 8.57488C11.2764 8.69079 11.3275 8.81391 11.366 8.94239H14.4969C14.3894 7.97325 14.0055 7.08642 13.4259 6.36256L11.2136 8.57488Z" fill="#E31B25"/>
<path d="M10.4251 11.2137C10.3092 11.2765 10.1861 11.3276 10.0576 11.3661V14.4969C11.0267 14.3895 11.9136 14.0056 12.6374 13.426L10.4251 11.2137Z" fill="#E31B25"/>
<path d="M7.78616 10.4252C7.72334 10.3092 7.67226 10.1861 7.63378 10.0576H4.50293C4.61036 11.0268 4.99426 11.9136 5.57388 12.6375L7.78616 10.4252Z" fill="#E31B25"/>
<path d="M8.94258 11.3661C8.81407 11.3276 8.69098 11.2765 8.57507 11.2137L6.36279 13.426C7.08665 14.0056 7.97348 14.3895 8.94262 14.4969V11.3661H8.94258Z" fill="#E31B25"/>
<path d="M8.57487 7.7863C8.69078 7.72347 8.8139 7.6724 8.94237 7.63392V4.50307C7.97324 4.6105 7.08641 4.9944 6.36255 5.57402L8.57487 7.7863Z" fill="#E31B25"/>
<path d="M10.0576 4.50307V7.63392C10.1861 7.6724 10.3092 7.72347 10.4251 7.7863L12.6374 5.57402C11.9136 4.99436 11.0267 4.6105 10.0576 4.50307Z" fill="#E31B25"/>
<path d="M9.50007 10.3326C9.9599 10.3326 10.3327 9.95983 10.3327 9.5C10.3327 9.04017 9.9599 8.6674 9.50007 8.6674C9.04024 8.6674 8.66748 9.04017 8.66748 9.5C8.66748 9.95983 9.04024 10.3326 9.50007 10.3326Z" fill="#E31B25"/>
</svg>
