<svg width="23" height="16" viewBox="0 0 23 16" fill="none" xmlns="http://www.w3.org/2000/svg">
<path d="M3 1H0V2H3V1Z" fill="#C1C1C1"/>
<path d="M0 13V15H2V13C1.7045 13.151 1.366 13.2441 1 13.2441C0.634 13.2441 0.2955 13.1514 0 13Z" fill="#C1C1C1"/>
<path d="M1 12C1.55228 12 2 11.7761 2 11.5C2 11.2239 1.55228 11 1 11C0.447715 11 0 11.2239 0 11.5C0 11.7761 0.447715 12 1 12Z" fill="#C1C1C1"/>
<path d="M4 0H3.5C3.224 0 3 0.1792 3 0.4V4H4V0Z" fill="#C1C1C1"/>
<path d="M13.4615 0.8H15V0.4C15 0.1792 14.8277 0 14.6154 0H5V4H13.4615V0.8Z" fill="#C1C1C1"/>
<path d="M23 10H22V12H23V10Z" fill="#C1C1C1"/>
<path d="M21 9H20V13H21V9Z" fill="#C1C1C1"/>
<path d="M17 7V14H18.3335L20 12.9062V8.09375L18.3335 7H17Z" fill="#C1C1C1"/>
<path d="M0 10C0.2955 9.84899 0.634 9.75593 1 9.75593C1.366 9.75593 1.7045 9.84899 2 10V8H0V10Z" fill="#C1C1C1"/>
<path d="M14.625 5H13.5V15.1538H12.75V5H3.375C3.168 5 3 5.18954 3 5.42308V15.5769C3 15.8105 3.168 16 3.375 16H4.5V6.26923H5.25V16H14.625C14.832 16 15 15.8105 15 15.5769V5.42308C15 5.18996 14.832 5 14.625 5Z" fill="#C1C1C1"/>
<path d="M15.6667 2H14V4.4375H14.3333C14.8847 4.4375 15.3333 4.98431 15.3333 5.65625V15H15.6667C15.8507 15 16 14.818 16 14.5938V2.40625C16 2.18241 15.8507 2 15.6667 2Z" fill="#C1C1C1"/>
</svg>
