<svg width="20" height="20" viewBox="0 0 20 20" fill="none" xmlns="http://www.w3.org/2000/svg">
<path d="M15.1975 0.296992C15.0934 0.113281 14.8988 0 14.6877 0H7.6564C7.38746 0 7.15343 0.183125 7.0882 0.444023L4.74445 9.85809C4.70039 10.0332 4.73988 10.2186 4.85089 10.3605C4.96191 10.5029 5.13242 10.5859 5.31265 10.5859H7.98257L4.76394 19.208C4.66093 19.4827 4.77711 19.7911 5.03515 19.9302C5.29437 20.0691 5.61507 19.9947 5.78644 19.7585L15.1614 6.82879C15.2913 6.65082 15.3096 6.41508 15.2101 6.21824C15.11 6.02199 14.908 5.8984 14.6877 5.8984H12.2071L15.19 0.887461C15.2988 0.706094 15.3016 0.480664 15.1975 0.296992Z" fill="#C1C1C1"/>
</svg>
