<svg width="28" height="28" viewBox="0 0 28 28" fill="none" xmlns="http://www.w3.org/2000/svg">
<path d="M0.559949 1.10915H5.76747L9.13276 17.763C9.18316 18.0237 9.41274 18.2067 9.68152 18.2067H25.5281C26.2728 18.2067 26.8775 18.8112 26.8775 19.5488C26.8775 20.2864 26.2728 20.8909 25.5281 20.8909H9.68152C9.37354 20.8909 9.12157 21.1349 9.12157 21.4454C9.12157 21.7504 9.37354 22 9.68152 22H25.5281C26.8887 22 27.9974 20.9019 27.9974 19.5488C27.9974 18.3121 27.0679 17.2972 25.8696 17.1308L27.9918 4.35342C28.0198 4.19259 27.975 4.02622 27.8687 3.89866C27.7623 3.77111 27.6055 3.69902 27.4375 3.69902H7.43052L6.77538 0.44366C6.72499 0.188556 6.49541 0 6.22663 0H0.559949C0.251977 0 0 0.249559 0 0.554575C0 0.859592 0.251977 1.10915 0.559949 1.10915Z" fill="#E31B25"/>
<path d="M20 25.497C20 26.8809 21.1238 28 22.5 28C23.8762 28 25 26.8809 25 25.497C25 24.1191 23.8762 23 22.5 23C21.1238 23 20 24.1191 20 25.497Z" fill="#E31B25"/>
<path d="M10 25.497C10 26.8809 11.1252 28 12.503 28C13.8809 28 15 26.8809 15 25.497C15 24.1191 13.8809 23 12.503 23C11.1252 23 10 24.1191 10 25.497Z" fill="#E31B25"/>
</svg>
