<svg width="17" height="17" viewBox="0 0 17 17" fill="none" xmlns="http://www.w3.org/2000/svg">
<g clip-path="url(#clip0)">
<path d="M9.05537 5.67834L0.484061 14.2497C-0.136405 14.8702 -0.163731 15.881 0.446275 16.5118C1.06946 17.1561 2.0971 17.1627 2.72849 16.5313L11.354 7.90574C10.672 7.13808 9.58343 6.1482 9.05537 5.67834Z" fill="#C1C1C1"/>
<path d="M14.5744 5.31747C14.4186 5.11052 14.4394 4.82039 14.6226 4.63721L15.0182 4.24156C15.6387 3.62106 15.6661 2.61019 15.056 1.97944C14.4328 1.33513 13.4052 1.32859 12.7739 1.95998L12.3596 2.37425C12.1765 2.5573 11.8864 2.57825 11.6795 2.42256C8.55247 0.0689646 5.0013 -0.606319 3.18738 0.557714C3.09448 0.617313 3.03023 0.715561 3.02339 0.825696C3.01283 0.99533 3.12526 1.14066 3.28261 1.17861C5.3226 1.67025 7.72753 2.88273 9.87408 4.85967C10.4626 5.40168 11.5916 6.53732 12.1371 7.12266C14.1238 9.25456 15.3229 11.6675 15.816 13.7055C15.8415 13.8108 15.9114 13.902 16.0108 13.9451C16.168 14.0134 16.3442 13.9557 16.4327 13.819C17.6047 12.0089 16.9333 8.45131 14.5744 5.31747Z" fill="#C1C1C1"/>
</g>
<defs>
<clipPath id="clip0">
<rect width="17" height="17" fill="white"/>
</clipPath>
</defs>
</svg>
