<svg width="22" height="22" viewBox="0 0 22 22" fill="none" xmlns="http://www.w3.org/2000/svg">
<path d="M13 14.5C13 17.5376 10.5376 20 7.5 20C4.46243 20 2 17.5376 2 14.5C2 11.4624 4.46243 9 7.5 9C10.5376 9 13 11.4624 13 14.5Z" fill="#C1C1C1"/>
<path d="M12.874 4.00256C12.8499 4.1932 12.8333 4.38614 12.8333 4.58333C12.8333 4.78053 12.8499 4.97349 12.874 5.16411L13.891 5.58127C13.9696 5.85939 14.0786 6.12434 14.217 6.37138L13.7938 7.38372C14.0322 7.69163 14.3082 7.96763 14.6161 8.20603L15.6285 7.78294C15.8755 7.9213 16.1405 8.03026 16.4186 8.1089L16.8358 9.12588C17.0265 9.15005 17.2194 9.16667 17.4166 9.16667C17.6138 9.16667 17.8067 9.15005 17.9974 9.12588L18.4145 8.1089C18.6927 8.03032 18.9576 7.92136 19.2047 7.78297L20.217 8.20608C20.5249 7.96768 20.8009 7.69169 21.0393 7.38377L20.6162 6.37141C20.7546 6.12436 20.8635 5.85942 20.9421 5.58129L21.9591 5.16411C21.9833 4.97347 21.9999 4.78053 21.9999 4.58333C21.9999 4.38614 21.9833 4.1932 21.9591 4.00256L20.9421 3.58537C20.8636 3.30725 20.7546 3.0423 20.6162 2.79526L21.0393 1.78292C20.801 1.47501 20.5249 1.19901 20.217 0.960639L19.2047 1.38373C18.9576 1.24534 18.6927 1.13638 18.4145 1.05777L17.9974 0.0407871C17.8067 0.0166146 17.6138 0 17.4166 0C17.2194 0 17.0265 0.0166146 16.8358 0.0407871L16.4186 1.05777C16.1405 1.13635 15.8756 1.24534 15.6285 1.3837L14.6162 0.960584C14.3083 1.19895 14.0323 1.47495 13.7939 1.78287L14.217 2.79526C14.0786 3.0423 13.9696 3.30725 13.891 3.58537L12.874 4.00256ZM17.4166 2.75C18.4291 2.75 19.2499 3.5708 19.2499 4.58333C19.2499 5.59584 18.4291 6.41667 17.4166 6.41667C16.404 6.41667 15.5833 5.59584 15.5833 4.58333C15.5833 3.5708 16.404 2.75 17.4166 2.75Z" fill="#C1C1C1"/>
<path d="M6.60399 7.37016L6.32133 8.58121C5.92078 8.6474 5.53407 8.7516 5.16346 8.89094L4.31725 7.98749C3.87065 8.18952 3.44916 8.43501 3.05566 8.7185L3.41347 9.89522C3.1028 10.1507 2.81754 10.4359 2.56201 10.7466L1.38532 10.3888C1.10176 10.7823 0.856263 11.2038 0.654211 11.6504L1.55764 12.4967C1.41827 12.8673 1.31406 13.2541 1.24786 13.6546L0.0368172 13.9373C0.0131228 14.1773 0 14.4204 0 14.6667C0 14.9129 0.0131228 15.156 0.0368211 15.396L1.24786 15.6787C1.31406 16.0792 1.41826 16.4659 1.5576 16.8366L0.654145 17.6828C0.856174 18.1294 1.10166 18.5508 1.38515 18.9444L2.56187 18.5866C2.81742 18.8972 3.10261 19.1824 3.41328 19.438L3.05547 20.6147C3.44897 20.8983 3.87049 21.1437 4.31709 21.3458L5.16335 20.4424C5.53398 20.5817 5.92072 20.6859 6.32129 20.7521L6.60398 21.9632C6.84398 21.9869 7.08709 22 7.33333 22C7.57956 22 7.82269 21.9869 8.06267 21.9632L8.34534 20.7521C8.74588 20.6859 9.1326 20.5818 9.50321 20.4424L10.3494 21.3459C10.796 21.1438 11.2175 20.8983 11.611 20.6148L11.2532 19.4381C11.5639 19.1826 11.8491 18.8974 12.1047 18.5867L13.2814 18.9445C13.5649 18.551 13.8104 18.1295 14.0125 17.6829L13.1091 16.8366C13.2484 16.466 13.3526 16.0793 13.4188 15.6787L14.6299 15.396C14.6535 15.156 14.6667 14.9129 14.6667 14.6667C14.6667 14.4205 14.6535 14.1773 14.6298 13.9373L13.4188 13.6547C13.3526 13.2541 13.2484 12.8674 13.1091 12.4968L14.0125 11.6506C13.8105 11.204 13.565 10.7825 13.2815 10.389L12.1048 10.7468C11.8492 10.4361 11.5641 10.1509 11.2534 9.89536L11.6112 8.71864C11.2177 8.4351 10.7962 8.18958 10.3496 7.98755L9.50332 8.89098C9.13269 8.75162 8.74595 8.6474 8.34538 8.5812L8.06269 7.37016C7.82269 7.34647 7.57958 7.33334 7.33333 7.33334C7.08711 7.33334 6.84398 7.34647 6.60399 7.37016ZM11.5789 14.6667C11.5789 17.0115 9.67812 18.9123 7.33333 18.9123C4.98855 18.9123 3.08772 17.0115 3.08772 14.6667C3.08772 12.3219 4.98855 10.4211 7.33333 10.4211C9.67812 10.4211 11.5789 12.3219 11.5789 14.6667Z" fill="#C1C1C1"/>
<path d="M12.4587 2.50378L13.3169 1.93132L13.6984 2.50325L12.8403 3.07571L12.4587 2.50378Z" fill="#C1C1C1"/>
<path d="M11.0298 3.45938L11.8877 2.88711L12.2692 3.45904L11.4113 4.03131L11.0298 3.45938Z" fill="#C1C1C1"/>
<path d="M9.60034 4.41321L10.4582 3.84094L10.8398 4.41286L9.98186 4.98514L9.60034 4.41321Z" fill="#C1C1C1"/>
<path d="M6.74072 6.32077L7.59862 5.7485L7.98013 6.32043L7.12224 6.8927L6.74072 6.32077Z" fill="#C1C1C1"/>
<path d="M5.31128 7.27466L6.16917 6.70238L6.55069 7.27431L5.69279 7.84659L5.31128 7.27466Z" fill="#C1C1C1"/>
<path d="M8.17041 5.36694L9.0283 4.79467L9.40982 5.3666L8.55193 5.93887L8.17041 5.36694Z" fill="#C1C1C1"/>
<path d="M15.9116 13.7304L16.4428 12.8465L17.0321 13.2006L16.5009 14.0846L15.9116 13.7304Z" fill="#C1C1C1"/>
<path d="M16.7971 12.2565L17.3283 11.3725L17.9176 11.7267L17.3864 12.6106L16.7971 12.2565Z" fill="#C1C1C1"/>
<path d="M14.1416 16.6783L14.6728 15.7943L15.2621 16.1484L14.7309 17.0324L14.1416 16.6783Z" fill="#C1C1C1"/>
<path d="M15.0264 15.2044L15.5577 14.3202L16.147 14.6743L15.6157 15.5586L15.0264 15.2044Z" fill="#C1C1C1"/>
<path d="M18.5671 9.30853L19.0983 8.42461L19.6876 8.77873L19.1564 9.66265L18.5671 9.30853Z" fill="#C1C1C1"/>
<path d="M17.6819 10.7827L18.2131 9.89873L18.8023 10.2528L18.2712 11.1368L17.6819 10.7827Z" fill="#C1C1C1"/>
</svg>
